{
  "accessors": [
    {
      "bufferView": 2,
      "componentType": 5126,
      "count": 65532,
      "max": [
        4000.0,
        726.1452026367188,
        4000.0
      ],
      "min": [
        -4000.0,
        -147.96514892578125,
        -4000.0
      ],
      "type": "VEC3"
    },
    {
      "bufferView": 2,
      "byteOffset": 786384,
      "componentType": 5126,
      "count": 65532,
      "max": [
        0.7615711688995361,
        1.0,
        0.6479455232620239
      ],
      "min": [
        -0.7366182208061218,
        0.6189850568771362,
        -0.5649404525756836
      ],
      "type": "VEC3"
    },
    {
      "bufferView": 3,
      "componentType": 5126,
      "count": 65532,
      "max": [
        1.0,
        0.7405231595039368,
        0.08117705583572388,
        1.0
      ],
      "min": [
        0.6441773772239685,
        -0.7648041248321533,
        -0.04559251666069031,
        1.0
      ],
      "type": "VEC4"
    },
    {
      "bufferView": 1,
      "componentType": 5126,
      "count": 65532,
      "max": [
        1.0,
        1.0
      ],
      "min": [
        0.0,
        0.0
      ],
      "type": "VEC2"
    },
    {
      "bufferView": 1,
      "byteOffset": 524256,
      "componentType": 5126,
      "count": 65532,
      "max": [
        1.0,
        1.0
      ],
      "min": [
        0.0,
        0.0
      ],
      "type": "VEC2"
    },
    {
      "bufferView": 1,
      "byteOffset": 1048512,
      "componentType": 5126,
      "count": 65532,
      "max": [
        1.0,
        1.0
      ],
      "min": [
        0.0,
        0.0
      ],
      "type": "VEC2"
    },
    {
      "bufferView": 0,
      "componentType": 5125,
      "count": 387468,
      "type": "SCALAR"
    },
    {
      "bufferView": 2,
      "byteOffset": 1572768,
      "componentType": 5126,
      "count": 65532,
      "max": [
        4000.0,
        720.33447265625,
        1735.088134765625
      ],
      "min": [
        -1733.727294921875,
        -172.82968139648438,
        -4000.0
      ],
      "type": "VEC3"
    },
    {
      "bufferView": 2,
      "byteOffset": 2359152,
      "componentType": 5126,
      "count": 65532,
      "max": [
        0.893934965133667,
        1.0,
        0.8188593983650208
      ],
      "min": [
        -0.8444982767105103,
        0.4258907735347748,
        -0.616126537322998
      ],
      "type": "VEC3"
    },
    {
      "bufferView": 3,
      "byteOffset": 1048512,
      "componentType": 5126,
      "count": 65532,
      "max": [
        1.0,
        0.8894472122192383,
        0.13731437921524048,
        1.0
      ],
      "min": [
        0.43945765495300293,
        -0.8982633352279663,
        -0.13089503347873688,
        1.0
      ],
      "type": "VEC4"
    },
    {
      "bufferView": 1,
      "byteOffset": 1572768,
      "componentType": 5126,
      "count": 65532,
      "max": [
        1.0,
        1.0
      ],
      "min": [
        0.28320300579071045,
        0.28320300579071045
      ],
      "type": "VEC2"
    },
    {
      "bufferView": 1,
      "byteOffset": 2097024,
      "componentType": 5126,
      "count": 65532,
      "max": [
        1.0,
        1.0
      ],
      "min": [
        0.28320300579071045,
        0.28320300579071045
      ],
      "type": "VEC2"
    },
    {
      "bufferView": 1,
      "byteOffset": 2621280,
      "componentType": 5126,
      "count": 65532,
      "max": [
        1.0,
        1.0
      ],
      "min": [
        0.28320300579071045,
        0.28320300579071045
      ],
      "type": "VEC2"
    },
    {
      "bufferView": 0,
      "byteOffset": 1549872,
      "componentType": 5125,
      "count": 389691,
      "type": "SCALAR"
    },
    {
      "bufferView": 2,
      "byteOffset": 3145536,
      "componentType": 5126,
      "count": 65532,
      "max": [
        3984.375,
        726.2581176757813,
        3984.375
      ],
      "min": [
        -4000.002197265625,
        -54.79288101196289,
        -4000.0
      ],
      "type": "VEC3"
    },
    {
      "bufferView": 2,
      "byteOffset": 3931920,
      "componentType": 5126,
      "count": 65532,
      "max": [
        0.6698427796363831,
        1.0,
        0.6993616223335266
      ],
      "min": [
        -0.7974621057510376,
        0.6023845076560974,
        -0.5514206290245056
      ],
      "type": "VEC3"
    },
    {
      "bufferView": 3,
      "byteOffset": 2097024,
      "componentType": 5126,
      "count": 65532,
      "max": [
        1.0,
        0.7979375123977661,
        0.06877239793539047,
        1.0
      ],
      "min": [
        0.6027401685714722,
        -0.694001317024231,
        -0.039434369653463364,
        1.0
      ],
      "type": "VEC4"
    },
    {
      "bufferView": 1,
      "byteOffset": 3145536,
      "componentType": 5126,
      "count": 65532,
      "max": [
        0.9980469942092896,
        1.0
      ],
      "min": [
        0.0,
        0.0019529999699443579
      ],
      "type": "VEC2"
    },
    {
      "bufferView": 1,
      "byteOffset": 3669792,
      "componentType": 5126,
      "count": 65532,
      "max": [
        0.9980469942092896,
        1.0
      ],
      "min": [
        0.0,
        0.0019529999699443579
      ],
      "type": "VEC2"
    },
    {
      "bufferView": 1,
      "byteOffset": 4194048,
      "componentType": 5126,
      "count": 65532,
      "max": [
        0.9980469942092896,
        1.0
      ],
      "min": [
        0.0,
        0.0019529999699443579
      ],
      "type": "VEC2"
    },
    {
      "bufferView": 0,
      "byteOffset": 3108636,
      "componentType": 5125,
      "count": 387495,
      "type": "SCALAR"
    },
    {
      "bufferView": 2,
      "byteOffset": 4718304,
      "componentType": 5126,
      "count": 65532,
      "max": [
        3968.75,
        780.986572265625,
        1673.740234375
      ],
      "min": [
        -1718.75,
        -42.15648651123047,
        -4000.0
      ],
      "type": "VEC3"
    },
    {
      "bufferView": 2,
      "byteOffset": 5504688,
      "componentType": 5126,
      "count": 65532,
      "max": [
        0.6715517044067383,
        1.0,
        0.8053642511367798
      ],
      "min": [
        -0.7606048583984375,
        0.5801364779472351,
        -0.6526855826377869
      ],
      "type": "VEC3"
    },
    {
      "bufferView": 3,
      "byteOffset": 3145536,
      "componentType": 5126,
      "count": 65532,
      "max": [
        1.0,
        0.7630838751792908,
        0.05162099748849869,
        1.0
      ],
      "min": [
        0.646290123462677,
        -0.694001317024231,
        -0.03712709620594978,
        1.0
      ],
      "type": "VEC4"
    },
    {
      "bufferView": 1,
      "byteOffset": 4718304,
      "componentType": 5126,
      "count": 65532,
      "max": [
        0.9960939288139343,
        1.0
      ],
      "min": [
        0.2851559817790985,
        0.29101601243019104
      ],
      "type": "VEC2"
    },
    {
      "bufferView": 1,
      "byteOffset": 5242560,
      "componentType": 5126,
      "count": 65532,
      "max": [
        0.9960939288139343,
        1.0
      ],
      "min": [
        0.2851559817790985,
        0.29101601243019104
      ],
      "type": "VEC2"
    },
    {
      "bufferView": 1,
      "byteOffset": 5766816,
      "componentType": 5126,
      "count": 65532,
      "max": [
        0.9960939288139343,
        1.0
      ],
      "min": [
        0.2851559817790985,
        0.29101601243019104
      ],
      "type": "VEC2"
    },
    {
      "bufferView": 0,
      "byteOffset": 4658616,
      "componentType": 5125,
      "count": 389772,
      "type": "SCALAR"
    },
    {
      "bufferView": 2,
      "byteOffset": 6291072,
      "componentType": 5126,
      "count": 3241,
      "max": [
        4000.0,
        13.114524841308594,
        -2968.75
      ],
      "min": [
        3015.625,
        1.1511067152023315,
        -4000.0
      ],
      "type": "VEC3"
    },
    {
      "bufferView": 2,
      "byteOffset": 6329964,
      "componentType": 5126,
      "count": 3241,
      "max": [
        0.07550446689128876,
        0.9999998807907104,
        0.0671720951795578
      ],
      "min": [
        -0.09949125349521637,
        0.9942934513092041,
        -0.08447568863630295
      ],
      "type": "VEC3"
    },
    {
      "bufferView": 3,
      "byteOffset": 4194048,
      "componentType": 5126,
      "count": 3241,
      "max": [
        1.0,
        0.09950776398181915,
        0.0013417631853371859,
        1.0
      ],
      "min": [
        0.995036780834198,
        -0.07567083835601807,
        -0.0011366000398993492,
        1.0
      ],
      "type": "VEC4"
    },
    {
      "bufferView": 1,
      "byteOffset": 6291072,
      "componentType": 5126,
      "count": 3241,
      "max": [
        1.0,
        1.0
      ],
      "min": [
        0.8769529461860657,
        0.8710939884185791
      ],
      "type": "VEC2"
    },
    {
      "bufferView": 1,
      "byteOffset": 6317000,
      "componentType": 5126,
      "count": 3241,
      "max": [
        1.0,
        1.0
      ],
      "min": [
        0.8769529461860657,
        0.8710939884185791
      ],
      "type": "VEC2"
    },
    {
      "bufferView": 1,
      "byteOffset": 6342928,
      "componentType": 5126,
      "count": 3241,
      "max": [
        1.0,
        1.0
      ],
      "min": [
        0.8769529461860657,
        0.8710939884185791
      ],
      "type": "VEC2"
    },
    {
      "bufferView": 0,
      "byteOffset": 6217704,
      "componentType": 5125,
      "count": 18438,
      "type": "SCALAR"
    }
  ],
  "asset": {
    "extras": {
      "author": "densel (https://sketchfab.com/densel)",
      "license": "CC-BY-4.0 (http://creativecommons.org/licenses/by/4.0/)",
      "source": "https://sketchfab.com/3d-models/terrain-ccc6b8db791544319c4f40e1575cd715",
      "title": "Terrain"
    },
    "generator": "Sketchfab-12.67.0",
    "version": "2.0"
  },
  "bufferViews": [
    {
      "buffer": 0,
      "byteLength": 6291456,
      "name": "floatBufferViews",
      "target": 34963
    },
    {
      "buffer": 0,
      "byteLength": 6368856,
      "byteOffset": 6291456,
      "byteStride": 8,
      "name": "floatBufferViews",
      "target": 34962
    },
    {
      "buffer": 0,
      "byteLength": 6368856,
      "byteOffset": 12660312,
      "byteStride": 12,
      "name": "floatBufferViews",
      "target": 34962
    },
    {
      "buffer": 0,
      "byteLength": 4245904,
      "byteOffset": 19029168,
      "byteStride": 16,
      "name": "floatBufferViews",
      "target": 34962
    }
  ],
  "buffers": [
    {
      "byteLength": 23275072,
      "uri": "scene.bin"
    }
  ],
  "images": [
    {
      "uri": "textures/blinn1_baseColor.png"
    },
    {
      "uri": "textures/blinn1_normal.png"
    }
  ],
  "materials": [
    {
      "doubleSided": true,
      "name": "blinn1",
      "normalTexture": {
        "index": 1,
        "texCoord": 1
      },
      "pbrMetallicRoughness": {
        "baseColorTexture": {
          "index": 0
        },
        "metallicFactor": 0.0,
        "roughnessFactor": 0.6
      }
    }
  ],
  "meshes": [
    {
      "name": "pPlane1_blinn1_0",
      "primitives": [
        {
          "attributes": {
            "NORMAL": 1,
            "POSITION": 0,
            "TANGENT": 2,
            "TEXCOORD_0": 3,
            "TEXCOORD_1": 4,
            "TEXCOORD_2": 5
          },
          "indices": 6,
          "material": 0,
          "mode": 4
        }
      ]
    },
    {
      "name": "pPlane1_blinn1_0",
      "primitives": [
        {
          "attributes": {
            "NORMAL": 8,
            "POSITION": 7,
            "TANGENT": 9,
            "TEXCOORD_0": 10,
            "TEXCOORD_1": 11,
            "TEXCOORD_2": 12
          },
          "indices": 13,
          "material": 0,
          "mode": 4
        }
      ]
    },
    {
      "name": "pPlane1_blinn1_0",
      "primitives": [
        {
          "attributes": {
            "NORMAL": 15,
            "POSITION": 14,
            "TANGENT": 16,
            "TEXCOORD_0": 17,
            "TEXCOORD_1": 18,
            "TEXCOORD_2": 19
          },
          "indices": 20,
          "material": 0,
          "mode": 4
        }
      ]
    },
    {
      "name": "pPlane1_blinn1_0",
      "primitives": [
        {
          "attributes": {
            "NORMAL": 22,
            "POSITION": 21,
            "TANGENT": 23,
            "TEXCOORD_0": 24,
            "TEXCOORD_1": 25,
            "TEXCOORD_2": 26
          },
          "indices": 27,
          "material": 0,
          "mode": 4
        }
      ]
    },
    {
      "name": "pPlane1_blinn1_0",
      "primitives": [
        {
          "attributes": {
            "NORMAL": 29,
            "POSITION": 28,
            "TANGENT": 30,
            "TEXCOORD_0": 31,
            "TEXCOORD_1": 32,
            "TEXCOORD_2": 33
          },
          "indices": 34,
          "material": 0,
          "mode": 4
        }
      ]
    }
  ],
  "nodes": [
    {
      "children": [
        1
      ],
      "matrix": [
        1.0,
        0.0,
        0.0,
        0.0,
        0.0,
        2.220446049250313e-16,
        -1.0,
        0.0,
        0.0,
        1.0,
        2.220446049250313e-16,
        0.0,
        0.0,
        0.0,
        0.0,
        1.0
      ],
      "name": "Sketchfab_model"
    },
    {
      "children": [
        2
      ],
      "matrix": [
        1.0,
        0.0,
        0.0,
        0.0,
        0.0,
        0.0,
        1.0,
        0.0,
        0.0,
        -1.0,
        0.0,
        0.0,
        0.0,
        0.0,
        0.0,
        1.0
      ],
      "name": "c8856f5efe0e4f63898d5d5b4afafc11.fbx"
    },
    {
      "children": [
        3
      ],
      "name": "RootNode"
    },
    {
      "children": [
        4
      ],
      "matrix": [
        0.009999999776482582,
        0.0,
        0.0,
        0.0,
        0.0,
        0.009999999776482582,
        0.0,
        0.0,
        0.0,
        0.0,
        0.009999999776482582,
        0.0,
        1.3552527156068805e-20,
        0.0,
        0.0,
        1.0
      ],
      "name": "group"
    },
    {
      "children": [
        5,
        6,
        7,
        8,
        9
      ],
      "matrix": [
        1.0,
        0.0,
        0.0,
        0.0,
        0.0,
        1.0,
        0.0,
        0.0,
        0.0,
        0.0,
        1.0,
        0.0,
        0.0,
        -365.70166015625,
        0.0,
        1.0
      ],
      "name": "pPlane1"
    },
    {
      "mesh": 0,
      "name": "pPlane1_blinn1_0"
    },
    {
      "mesh": 1,
      "name": "pPlane1_blinn1_0"
    },
    {
      "mesh": 2,
      "name": "pPlane1_blinn1_0"
    },
    {
      "mesh": 3,
      "name": "pPlane1_blinn1_0"
    },
    {
      "mesh": 4,
      "name": "pPlane1_blinn1_0"
    }
  ],
  "samplers": [
    {
      "magFilter": 9729,
      "minFilter": 9987,
      "wrapS": 10497,
      "wrapT": 10497
    }
  ],
  "scene": 0,
  "scenes": [
    {
      "name": "Sketchfab_Scene",
      "nodes": [
        0
      ]
    }
  ],
  "textures": [
    {
      "sampler": 0,
      "source": 0
    },
    {
      "sampler": 0,
      "source": 1
    }
  ]
}
