{
  "accessors": [
    {
      "bufferView": 2,
      "componentType": 5126,
      "count": 740,
      "max": [
        2.9940991401672363,
        7.343286514282227,
        1.2750523090362549
      ],
      "min": [
        -2.9940991401672363,
        0.2710944414138794,
        -2.6997604370117188
      ],
      "type": "VEC3"
    },
    {
      "bufferView": 2,
      "byteOffset": 8880,
      "componentType": 5126,
      "count": 740,
      "max": [
        0.9519354701042175,
        1.0,
        0.9989461302757263
      ],
      "min": [
        -1.0,
        -0.9995476007461548,
        -0.7695330381393433
      ],
      "type": "VEC3"
    },
    {
      "bufferView": 1,
      "componentType": 5126,
      "count": 740,
      "max": [
        0.9804162383079529,
        0.9156493544578552
      ],
      "min": [
        0.09933653473854065,
        0.0003291890025138855
      ],
      "type": "VEC2"
    },
    {
      "bufferView": 0,
      "componentType": 5125,
      "count": 1860,
      "type": "SCALAR"
    },
    {
      "bufferView": 2,
      "byteOffset": 17760,
      "componentType": 5126,
      "count": 48,
      "max": [
        0.2217978835105896,
        3.5191097259521484,
        2.2351741790771484e-08
      ],
      "min": [
        -0.05581028386950493,
        -0.10650372505187988,
        -2.3510844707489014
      ],
      "type": "VEC3"
    },
    {
      "bufferView": 2,
      "byteOffset": 18336,
      "componentType": 5126,
      "count": 48,
      "max": [
        0.9924039840698242,
        0.8067602515220642,
        0.8038396239280701
      ],
      "min": [
        -0.579288899898529,
        -0.8062832355499268,
        -0.8054317235946655
      ],
      "type": "VEC3"
    },
    {
      "bufferView": 1,
      "byteOffset": 5920,
      "componentType": 5126,
      "count": 48,
      "max": [
        0.7918675541877747,
        0.727925717830658
      ],
      "min": [
        0.4371303617954254,
        0.09410300850868225
      ],
      "type": "VEC2"
    },
    {
      "bufferView": 0,
      "byteOffset": 7440,
      "componentType": 5125,
      "count": 144,
      "type": "SCALAR"
    },
    {
      "bufferView": 2,
      "byteOffset": 18912,
      "componentType": 5126,
      "count": 3274,
      "max": [
        1.406880497932434,
        1.2677645683288574,
        2.880584716796875
      ],
      "min": [
        -1.406880497932434,
        -1.3163326978683472,
        -3.128269910812378
      ],
      "type": "VEC3"
    },
    {
      "bufferView": 2,
      "byteOffset": 58200,
      "componentType": 5126,
      "count": 3274,
      "max": [
        1.0,
        1.0,
        1.0
      ],
      "min": [
        -1.0,
        -1.0,
        -1.0
      ],
      "type": "VEC3"
    },
    {
      "bufferView": 1,
      "byteOffset": 6304,
      "componentType": 5126,
      "count": 3274,
      "max": [
        0.981559693813324,
        0.9902207255363464
      ],
      "min": [
        0.005552180111408234,
        -0.0056130364537239075
      ],
      "type": "VEC2"
    },
    {
      "bufferView": 0,
      "byteOffset": 8016,
      "componentType": 5125,
      "count": 12606,
      "type": "SCALAR"
    },
    {
      "bufferView": 2,
      "byteOffset": 97488,
      "componentType": 5126,
      "count": 214,
      "max": [
        1.3020424842834473,
        1.714677333831787,
        2.2217793464660645
      ],
      "min": [
        -1.3020424842834473,
        -0.0036148466169834137,
        -3.1974687576293945
      ],
      "type": "VEC3"
    },
    {
      "bufferView": 2,
      "byteOffset": 100056,
      "componentType": 5126,
      "count": 214,
      "max": [
        1.0,
        0.0,
        1.0
      ],
      "min": [
        -1.0,
        0.0,
        -1.0
      ],
      "type": "VEC3"
    },
    {
      "bufferView": 1,
      "byteOffset": 32496,
      "componentType": 5126,
      "count": 214,
      "max": [
        0.9959090352058411,
        0.9685026407241821
      ],
      "min": [
        0.28525879979133606,
        0.28923413157463074
      ],
      "type": "VEC2"
    },
    {
      "bufferView": 0,
      "byteOffset": 58440,
      "componentType": 5125,
      "count": 414,
      "type": "SCALAR"
    },
    {
      "bufferView": 2,
      "byteOffset": 102624,
      "componentType": 5126,
      "count": 66,
      "max": [
        2.577160358428955,
        1.9724934101104736,
        4.72792911529541
      ],
      "min": [
        -2.578916072845459,
        -0.008408069610595703,
        -2.0803847312927246
      ],
      "type": "VEC3"
    },
    {
      "bufferView": 2,
      "byteOffset": 103416,
      "componentType": 5126,
      "count": 66,
      "max": [
        1.0,
        0.8220311403274536,
        0.7222613096237183
      ],
      "min": [
        -1.0,
        0.0,
        -0.6442038416862488
      ],
      "type": "VEC3"
    },
    {
      "bufferView": 1,
      "byteOffset": 34208,
      "componentType": 5126,
      "count": 66,
      "max": [
        0.851515531539917,
        0.8707349896430969
      ],
      "min": [
        0.1693495213985443,
        0.10154218971729279
      ],
      "type": "VEC2"
    },
    {
      "bufferView": 0,
      "byteOffset": 60096,
      "componentType": 5125,
      "count": 108,
      "type": "SCALAR"
    },
    {
      "bufferView": 2,
      "byteOffset": 104208,
      "componentType": 5126,
      "count": 1518,
      "max": [
        2.077086925506592,
        10.622124671936035,
        1.7177348136901855
      ],
      "min": [
        -2.077086925506592,
        -0.009051859378814697,
        -7.442909240722656
      ],
      "type": "VEC3"
    },
    {
      "bufferView": 2,
      "byteOffset": 122424,
      "componentType": 5126,
      "count": 1518,
      "max": [
        0.9974752068519592,
        1.0,
        1.0
      ],
      "min": [
        -0.9974752068519592,
        -1.0,
        -1.0
      ],
      "type": "VEC3"
    },
    {
      "bufferView": 1,
      "byteOffset": 34736,
      "componentType": 5126,
      "count": 1518,
      "max": [
        0.8890277147293091,
        0.9120036363601685
      ],
      "min": [
        0.04721619561314583,
        0.039816051721572876
      ],
      "type": "VEC2"
    },
    {
      "bufferView": 0,
      "byteOffset": 60528,
      "componentType": 5125,
      "count": 3888,
      "type": "SCALAR"
    }
  ],
  "asset": {
    "extras": {
      "author": "taj_tajima (https://sketchfab.com/taj_tajima)",
      "license": "CC-BY-4.0 (http://creativecommons.org/licenses/by/4.0/)",
      "source": "https://sketchfab.com/3d-models/thousand-sunny-8358c7e52d1a47bb8fbf80f543f96a0e",
      "title": "Thousand Sunny"
    },
    "generator": "Sketchfab-12.68.0",
    "version": "2.0"
  },
  "bufferViews": [
    {
      "buffer": 0,
      "byteLength": 76080,
      "name": "floatBufferViews",
      "target": 34963
    },
    {
      "buffer": 0,
      "byteLength": 46880,
      "byteOffset": 76080,
      "byteStride": 8,
      "name": "floatBufferViews",
      "target": 34962
    },
    {
      "buffer": 0,
      "byteLength": 140640,
      "byteOffset": 122960,
      "byteStride": 12,
      "name": "floatBufferViews",
      "target": 34962
    }
  ],
  "buffers": [
    {
      "byteLength": 263600,
      "uri": "scene.bin"
    }
  ],
  "images": [
    {
      "uri": "textures/sunny_masts_baseColor.png"
    },
    {
      "uri": "textures/sunny_baseColor.png"
    }
  ],
  "materials": [
    {
      "alphaMode": "MASK",
      "doubleSided": true,
      "name": "sunny_masts",
      "pbrMetallicRoughness": {
        "baseColorTexture": {
          "index": 0
        },
        "metallicFactor": 0.0,
        "roughnessFactor": 0.0
      }
    },
    {
      "alphaMode": "BLEND",
      "doubleSided": true,
      "name": "sunny",
      "pbrMetallicRoughness": {
        "baseColorTexture": {
          "index": 1
        },
        "metallicFactor": 0.0
      }
    }
  ],
  "meshes": [
    {
      "name": "Object_0",
      "primitives": [
        {
          "attributes": {
            "NORMAL": 1,
            "POSITION": 0,
            "TEXCOORD_0": 2
          },
          "indices": 3,
          "material": 0,
          "mode": 4
        }
      ]
    },
    {
      "name": "Object_1",
      "primitives": [
        {
          "attributes": {
            "NORMAL": 5,
            "POSITION": 4,
            "TEXCOORD_0": 6
          },
          "indices": 7,
          "material": 0,
          "mode": 4
        }
      ]
    },
    {
      "name": "Object_2",
      "primitives": [
        {
          "attributes": {
            "NORMAL": 9,
            "POSITION": 8,
            "TEXCOORD_0": 10
          },
          "indices": 11,
          "material": 1,
          "mode": 4
        }
      ]
    },
    {
      "name": "Object_3",
      "primitives": [
        {
          "attributes": {
            "NORMAL": 13,
            "POSITION": 12,
            "TEXCOORD_0": 14
          },
          "indices": 15,
          "material": 0,
          "mode": 4
        }
      ]
    },
    {
      "name": "Object_4",
      "primitives": [
        {
          "attributes": {
            "NORMAL": 17,
            "POSITION": 16,
            "TEXCOORD_0": 18
          },
          "indices": 19,
          "material": 0,
          "mode": 4
        }
      ]
    },
    {
      "name": "Object_5",
      "primitives": [
        {
          "attributes": {
            "NORMAL": 21,
            "POSITION": 20,
            "TEXCOORD_0": 22
          },
          "indices": 23,
          "material": 0,
          "mode": 4
        }
      ]
    }
  ],
  "nodes": [
    {
      "children": [
        1
      ],
      "matrix": [
        1.0,
        -1.423209639569501e-16,
        7.042738519895494e-20,
        0.0,
        -2.80558499586533e-20,
        -0.000691979716066049,
        -0.9999997615814209,
        0.0,
        1.423209771918399e-16,
        0.9999997615814209,
        -0.000691979716066049,
        0.0,
        -8.784527873997514e-16,
        0.0002567518968135109,
        0.004271091893315315,
        1.0
      ],
      "name": "Sketchfab_model"
    },
    {
      "children": [
        2
      ],
      "name": "root"
    },
    {
      "children": [
        3,
        5,
        7,
        9,
        11,
        13
      ],
      "matrix": [
        1.0,
        0.0,
        0.0,
        0.0,
        0.0,
        2.220446049250313e-16,
        1.0,
        0.0,
        0.0,
        -1.0,
        2.220446049250313e-16,
        0.0,
        0.0,
        0.0,
        0.0,
        1.0
      ],
      "name": "GLTF_SceneRootNode"
    },
    {
      "children": [
        4
      ],
      "matrix": [
        1.733513593673706,
        0.0,
        0.0,
        0.0,
        0.0,
        1.733513593673706,
        0.0,
        0.0,
        0.0,
        0.0,
        1.733513593673706,
        0.0,
        0.0,
        1.1045984029769897,
        1.0134185552597046,
        1.0
      ],
      "name": "masts_0"
    },
    {
      "mesh": 0,
      "name": "Object_4"
    },
    {
      "children": [
        6
      ],
      "matrix": [
        1.3503449883602552,
        0.0,
        1.0870316425301838,
        0.0,
        -0.0,
        1.733513593673706,
        0.0,
        0.0,
        -1.0870316425301838,
        0.0,
        1.3503449883602552,
        0.0,
        0.0,
        5.407888889312744,
        -3.418421745300293,
        1.0
      ],
      "name": "masts.001_1"
    },
    {
      "mesh": 1,
      "name": "Object_6"
    },
    {
      "children": [
        8
      ],
      "matrix": [
        2.3277299404144287,
        0.0,
        0.0,
        0.0,
        0.0,
        2.3277299404144287,
        0.0,
        0.0,
        0.0,
        0.0,
        2.3277299404144287,
        0.0,
        0.0,
        1.5746029615402222,
        0.0,
        1.0
      ],
      "name": "shell_2"
    },
    {
      "mesh": 2,
      "name": "Object_8"
    },
    {
      "children": [
        10
      ],
      "matrix": [
        2.3277299404144287,
        0.0,
        0.0,
        0.0,
        0.0,
        2.3277299404144287,
        0.0,
        0.0,
        0.0,
        0.0,
        2.3277299404144287,
        0.0,
        0.0,
        1.5746029615402222,
        0.0,
        1.0
      ],
      "name": "shell.001_3"
    },
    {
      "mesh": 3,
      "name": "Object_10"
    },
    {
      "children": [
        12
      ],
      "matrix": [
        1.0,
        0.0,
        0.0,
        0.0,
        0.0,
        1.0,
        0.0,
        0.0,
        0.0,
        0.0,
        1.0,
        0.0,
        0.0,
        1.574596643447876,
        6.524790660478175e-05,
        1.0
      ],
      "name": "stairs_4"
    },
    {
      "mesh": 4,
      "name": "Object_12"
    },
    {
      "children": [
        14
      ],
      "matrix": [
        1.0,
        0.0,
        0.0,
        0.0,
        0.0,
        1.0,
        0.0,
        0.0,
        0.0,
        0.0,
        1.0,
        0.0,
        0.0,
        1.574596643447876,
        6.524790660478175e-05,
        1.0
      ],
      "name": "trees_5"
    },
    {
      "mesh": 5,
      "name": "Object_14"
    }
  ],
  "samplers": [
    {
      "magFilter": 9728,
      "minFilter": 9728,
      "wrapS": 10497,
      "wrapT": 10497
    },
    {
      "magFilter": 9728,
      "minFilter": 9986,
      "wrapS": 33071,
      "wrapT": 33071
    }
  ],
  "scene": 0,
  "scenes": [
    {
      "name": "Sketchfab_Scene",
      "nodes": [
        0
      ]
    }
  ],
  "textures": [
    {
      "sampler": 0,
      "source": 0
    },
    {
      "sampler": 1,
      "source": 1
    }
  ]
}
